<svg xmlns="http://www.w3.org/2000/svg" viewBox="0 0 200 200" width="512" height="512"><defs><linearGradient id="fsg" gradientUnits="userSpaceOnUse" x1="22" y1="14" x2="178" y2="186"><stop offset="0" stop-color="#3B82F6"/><stop offset="1" stop-color="#131B4D"/></linearGradient><linearGradient id="fsa" gradientUnits="userSpaceOnUse" x1="58" y1="38" x2="148" y2="168"><stop offset="0" stop-color="#262C43"/><stop offset="1" stop-color="#141928"/></linearGradient></defs><path fill="url(#fsg)" fill-rule="evenodd" d="M199.99 98.36L199.95 96.73L199.88 95.09L199.79 93.46L199.67 91.83L199.52 90.20L199.34 88.57L199.14 86.95L198.92 85.33L198.66 83.71L198.38 82.10L198.08 80.49L197.75 78.89L197.39 77.29L197.00 75.70L196.59 74.12L196.16 72.54L195.69 70.97L195.21 69.41L194.69 67.86L194.15 66.31L193.59 64.77L193.00 63.25L192.39 61.73L191.75 60.23L191.09 58.73L190.40 57.24L189.69 55.77L188.95 54.31L188.19 52.86L187.41 51.42L186.60 50.00L185.77 48.59L184.92 47.19L184.04 45.81L183.15 44.44L182.23 43.09L181.28 41.75L180.32 40.43L179.34 39.12L178.33 37.83L177.30 36.56L176.25 35.30L175.18 34.07L174.10 32.84L172.99 31.64L171.86 30.46L170.71 29.29L169.54 28.14L168.36 27.01L167.16 25.90L165.93 24.82L164.70 23.75L163.44 22.70L162.17 21.67L160.88 20.66L159.57 19.68L158.25 18.72L156.91 17.77L155.56 16.85L154.19 15.96L152.81 15.08L151.41 14.23L150.00 13.40L148.58 12.59L147.14 11.81L145.69 11.05L144.23 10.31L142.76 9.60L141.27 8.91L139.77 8.25L138.27 7.61L136.75 7.00L135.23 6.41L133.69 5.85L132.14 5.31L130.59 4.79L129.03 4.31L127.46 3.84L125.88 3.41L124.30 3.00L122.71 2.61L121.11 2.25L119.51 1.92L117.90 1.62L116.29 1.34L114.67 1.08L113.05 0.86L111.43 0.66L109.80 0.48L108.17 0.33L106.54 0.21L104.91 0.12L103.27 0.05L101.64 0.01L100.00 0.00L98.36 0.01L96.73 0.05L95.09 0.12L93.46 0.21L91.83 0.33L90.20 0.48L88.57 0.66L86.95 0.86L85.33 1.08L83.71 1.34L82.10 1.62L80.49 1.92L78.89 2.25L77.29 2.61L75.70 3.00L74.12 3.41L72.54 3.84L70.97 4.31L69.41 4.79L67.86 5.31L66.31 5.85L64.77 6.41L63.25 7.00L61.73 7.61L60.23 8.25L58.73 8.91L57.24 9.60L55.77 10.31L54.31 11.05L52.86 11.81L51.42 12.59L50.00 13.40L48.59 14.23L47.19 15.08L45.81 15.96L44.44 16.85L43.09 17.77L41.75 18.72L40.43 19.68L39.12 20.66L37.83 21.67L36.56 22.70L35.30 23.75L34.07 24.82L32.84 25.90L31.64 27.01L30.46 28.14L29.29 29.29L28.14 30.46L27.01 31.64L25.90 32.84L24.82 34.07L23.75 35.30L22.70 36.56L21.67 37.83L20.66 39.12L19.68 40.43L18.72 41.75L17.77 43.09L16.85 44.44L15.96 45.81L15.08 47.19L14.23 48.59L13.40 50.00L12.59 51.42L11.81 52.86L11.05 54.31L10.31 55.77L9.60 57.24L8.91 58.73L8.25 60.23L7.61 61.73L7.00 63.25L6.41 64.77L5.85 66.31L5.31 67.86L4.79 69.41L4.31 70.97L3.84 72.54L3.41 74.12L3.00 75.70L2.61 77.29L2.25 78.89L1.92 80.49L1.62 82.10L1.34 83.71L1.08 85.33L0.86 86.95L0.66 88.57L0.48 90.20L0.33 91.83L0.21 93.46L0.12 95.09L0.05 96.73L0.01 98.36L0.00 100.00L0.01 101.64L0.05 103.27L0.12 104.91L0.21 106.54L0.33 108.17L0.48 109.80L0.66 111.43L0.86 113.05L1.08 114.67L1.34 116.29L1.62 117.90L1.92 119.51L2.25 121.11L2.61 122.71L3.00 124.30L3.41 125.88L3.84 127.46L4.31 129.03L4.79 130.59L5.31 132.14L5.85 133.69L6.41 135.23L7.00 136.75L7.61 138.27L8.25 139.77L8.91 141.27L9.60 142.76L10.31 144.23L11.05 145.69L11.81 147.14L12.59 148.58L13.40 150.00L14.23 151.41L15.08 152.81L15.96 154.19L16.85 155.56L17.77 156.91L18.72 158.25L19.68 159.57L20.66 160.88L21.67 162.17L22.70 163.44L23.75 164.70L24.82 165.93L25.90 167.16L27.01 168.36L28.14 169.54L29.29 170.71L30.46 171.86L31.64 172.99L32.84 174.10L34.07 175.18L35.30 176.25L36.56 177.30L37.83 178.33L39.12 179.34L40.43 180.32L41.75 181.28L43.09 182.23L44.44 183.15L45.81 184.04L47.19 184.92L48.59 185.77L50.00 186.60L51.42 187.41L52.86 188.19L54.31 188.95L55.77 189.69L57.24 190.40L58.73 191.09L60.23 191.75L61.73 192.39L63.25 193.00L64.77 193.59L66.31 194.15L67.86 194.69L69.41 195.21L70.97 195.69L72.54 196.16L74.12 196.59L75.70 197.00L77.29 197.39L78.89 197.75L80.49 198.08L82.10 198.38L83.71 198.66L85.33 198.92L86.95 199.14L88.57 199.34L90.20 199.52L91.83 199.67L93.46 199.79L95.09 199.88L96.73 199.95L98.36 199.99L100.00 200.00L101.64 199.99L103.27 199.95L104.91 199.88L106.54 199.79L108.17 199.67L109.80 199.52L111.43 199.34L113.05 199.14L114.67 198.92L116.29 198.66L117.90 198.38L119.51 198.08L121.11 197.75L122.71 197.39L124.30 197.00L125.88 196.59L127.46 196.16L129.03 195.69L130.59 195.21L132.14 194.69L133.69 194.15L135.23 193.59L136.75 193.00L138.27 192.39L139.77 191.75L141.27 191.09L142.76 190.40L144.23 189.69L145.69 188.95L147.14 188.19L148.58 187.41L150.00 186.60L151.41 185.77L152.81 184.92L154.19 184.04L155.56 183.15L156.91 182.23L158.25 181.28L159.57 180.32L160.88 179.34L162.17 178.33L163.44 177.30L164.70 176.25L165.93 175.18L167.16 174.10L168.36 172.99L169.54 171.86L170.71 170.71L171.86 169.54L172.99 168.36L174.10 167.16L175.18 165.93L176.25 164.70L177.30 163.44L178.33 162.17L179.34 160.88L180.32 159.57L181.28 158.25L182.23 156.91L183.15 155.56L184.04 154.19L184.92 152.81L185.77 151.41L186.60 150.00L187.41 148.58L188.19 147.14L188.95 145.69L189.69 144.23L190.40 142.76L191.09 141.27L191.75 139.77L192.39 138.27L193.00 136.75L193.59 135.23L194.15 133.69L194.69 132.14L195.21 130.59L195.69 129.03L196.16 127.46L196.59 125.88L197.00 124.30L197.39 122.71L197.75 121.11L198.08 119.51L198.38 117.90L198.66 116.29L198.92 114.67L199.14 113.05L199.34 111.43L199.52 109.80L199.67 108.17L199.79 106.54L199.88 104.91L199.95 103.27L199.99 101.64L200.00 100.00ZM133.87 50.61L134.83 52.14L134.94 52.43L135.00 52.74L134.99 53.11L134.92 53.41L134.76 53.74L134.56 53.99L134.32 54.19L113.71 66.68L113.47 66.80L113.22 66.87L112.86 66.91L112.65 66.89L112.45 66.85L112.11 66.71L111.81 66.50L111.57 66.23L111.13 65.55L110.70 64.93L110.35 64.49L109.93 64.00L109.47 63.52L109.00 63.07L108.43 62.58L107.91 62.18L106.98 61.56L106.08 61.06L105.14 60.63L104.18 60.27L103.64 60.10L103.01 59.94L102.46 59.83L101.81 59.72L101.25 59.66L100.60 59.61L99.94 59.60L99.29 59.62L98.63 59.67L98.08 59.74L97.52 59.83L96.88 59.97L96.25 60.14L95.62 60.34L95.10 60.53L94.49 60.78L93.65 61.20L92.77 61.72L91.92 62.31L91.19 62.90L90.44 63.61L89.81 64.30L89.17 65.10L88.65 65.88L88.14 66.77L87.73 67.61L87.35 68.57L87.07 69.47L86.86 70.38L86.70 71.39L86.61 72.42L86.60 73.36L86.65 74.10L86.74 74.94L86.89 75.77L87.09 76.59L87.31 77.31L87.61 78.09L87.95 78.86L88.34 79.61L88.78 80.33L89.21 80.94L89.67 81.53L90.23 82.17L90.82 82.76L91.45 83.32L92.12 83.84L92.74 84.26L93.29 84.60L93.87 84.92L94.46 85.20L94.98 85.42L95.59 85.65L96.21 85.85L96.76 86.00L97.40 86.14L98.23 86.28L99.06 86.37L99.72 86.40L101.18 86.42L102.23 86.46L103.45 86.55L104.76 86.68L105.98 86.84L107.29 87.06L108.49 87.30L109.78 87.60L110.70 87.84L111.70 88.12L112.78 88.46L113.68 88.77L114.73 89.17L115.70 89.56L116.57 89.94L117.51 90.37L118.61 90.92L119.79 91.55L120.85 92.16L121.97 92.86L122.99 93.54L124.08 94.31L125.05 95.05L126.08 95.89L127.15 96.81L128.05 97.65L128.99 98.58L129.84 99.47L130.72 100.46L131.51 101.40L132.33 102.44L133.06 103.43L133.86 104.60L134.57 105.72L135.20 106.77L135.85 107.93L136.49 109.19L137.01 110.31L137.57 111.60L138.05 112.84L138.46 114.00L138.87 115.27L139.25 116.63L139.55 117.82L139.84 119.20L140.08 120.51L140.28 121.91L140.42 123.14L140.52 124.46L140.58 125.87L140.60 127.10L140.57 128.51L140.50 129.84L140.40 131.07L140.23 132.47L140.03 133.79L139.77 135.18L139.50 136.38L139.15 137.75L138.78 139.03L138.34 140.37L137.91 141.52L137.39 142.83L136.85 144.05L136.44 144.90L135.97 145.83L135.52 146.66L135.00 147.57L134.52 148.38L133.96 149.26L133.43 150.04L132.83 150.89L132.26 151.64L131.62 152.47L131.02 153.19L130.34 153.98L129.70 154.68L128.98 155.43L128.31 156.10L127.56 156.82L126.86 157.45L126.07 158.13L125.34 158.72L124.51 159.36L123.76 159.92L122.90 160.52L122.12 161.05L121.23 161.60L120.43 162.09L119.52 162.60L118.69 163.04L117.75 163.51L116.90 163.91L115.95 164.34L115.08 164.70L114.10 165.07L113.04 165.45L112.14 165.74L111.14 166.04L110.24 166.29L109.22 166.54L108.30 166.74L107.28 166.94L106.35 167.10L105.32 167.25L104.38 167.36L103.34 167.46L102.40 167.53L101.36 167.58L100.42 167.60L99.37 167.60L98.43 167.57L97.39 167.52L96.45 167.44L95.41 167.34L94.48 167.22L93.44 167.07L92.52 166.90L91.49 166.70L90.58 166.49L89.56 166.24L88.66 165.98L87.66 165.68L86.76 165.38L85.78 165.03L84.90 164.69L83.94 164.29L83.07 163.90L81.37 163.08L79.87 162.26L78.34 161.34L76.76 160.29L75.38 159.29L73.98 158.17L72.56 156.92L71.27 155.68L70.48 154.87L69.71 154.03L68.84 153.03L68.13 152.15L67.43 151.24L66.77 150.32L66.13 149.39L65.52 148.43L65.13 147.77L65.04 147.52L65.00 147.26L65.00 146.95L65.07 146.64L65.19 146.35L65.33 146.13L65.55 145.91L65.76 145.75L86.29 133.32L86.53 133.20L86.83 133.12L87.19 133.09L87.55 133.15L87.89 133.29L88.19 133.50L88.43 133.77L88.87 134.45L89.30 135.07L89.71 135.58L90.07 136.00L90.59 136.54L91.07 136.99L91.57 137.42L92.09 137.82L92.94 138.39L93.92 138.94L94.86 139.37L95.82 139.73L96.45 139.92L96.99 140.06L97.64 140.19L98.19 140.28L98.84 140.35L99.40 140.39L100.06 140.40L100.71 140.38L101.37 140.33L102.02 140.25L102.57 140.15L103.21 140.01L103.84 139.84L104.38 139.66L104.99 139.44L105.51 139.22L106.51 138.71L107.47 138.13L108.37 137.46L109.22 136.72L109.94 135.99L110.66 135.12L111.30 134.20L111.86 133.23L112.34 132.21L112.74 131.16L113.04 130.08L113.25 128.98L113.37 127.86L113.40 126.74L113.33 125.62L113.18 124.60L113.05 123.95L112.86 123.23L112.66 122.61L112.39 121.91L112.09 121.22L111.79 120.64L111.47 120.07L111.06 119.44L110.62 118.83L110.21 118.32L109.77 117.83L109.25 117.30L108.76 116.86L108.18 116.39L107.58 115.95L106.95 115.54L106.38 115.22L105.88 114.96L105.37 114.72L104.76 114.47L104.14 114.26L103.61 114.09L102.97 113.93L102.42 113.82L101.68 113.71L100.94 113.63L100.28 113.60L98.82 113.58L97.78 113.54L96.64 113.46L95.43 113.34L94.11 113.17L92.99 112.99L91.78 112.76L90.49 112.47L89.57 112.24L88.49 111.93L87.49 111.62L86.59 111.32L85.53 110.93L84.56 110.55L83.69 110.18L82.74 109.75L81.64 109.21L80.46 108.59L79.40 107.98L78.26 107.29L77.24 106.62L76.15 105.86L75.17 105.12L74.13 104.29L73.20 103.50L72.22 102.61L71.34 101.76L70.41 100.80L69.59 99.90L68.72 98.89L67.96 97.93L67.16 96.88L66.46 95.87L65.68 94.69L64.94 93.48L64.29 92.32L63.64 91.06L63.11 89.95L62.54 88.66L62.05 87.42L61.57 86.09L61.19 84.92L60.80 83.56L60.47 82.27L60.17 80.89L59.95 79.68L59.74 78.28L59.59 76.95L59.48 75.55L59.42 74.32L59.40 72.90L59.43 71.57L59.50 70.16L59.60 68.93L59.77 67.53L59.97 66.21L60.23 64.82L60.50 63.62L60.85 62.25L61.22 60.97L61.66 59.63L62.09 58.48L62.58 57.24L63.15 55.95L63.69 54.84L64.34 53.59L65.04 52.36L65.74 51.22L66.52 50.04L67.34 48.89L68.08 47.91L68.98 46.81L69.91 45.74L70.82 44.77L71.82 43.77L72.86 42.81L73.93 41.88L74.88 41.10L76.01 40.25L77.17 39.43L78.28 38.70L79.49 37.96L80.73 37.27L81.82 36.70L83.09 36.09L84.31 35.55L85.63 35.03L86.96 34.55L88.13 34.17L89.50 33.78L90.87 33.44L92.25 33.15L93.57 32.91L94.97 32.71L96.19 32.58L97.60 32.47L99.01 32.41L100.43 32.40L101.77 32.44L103.18 32.52L104.59 32.66L105.81 32.82L107.20 33.04L108.51 33.30L109.70 33.58L111.08 33.94L112.43 34.35L113.69 34.78L115.02 35.28L116.32 35.83L117.61 36.42L118.71 36.97L119.95 37.64L121.17 38.36L122.30 39.07L123.47 39.87L124.46 40.60L125.58 41.47L126.66 42.38L127.65 43.27L128.67 44.26L129.66 45.27L130.48 46.18L131.40 47.26L132.28 48.37L133.12 49.51Z"/></svg>